<svg width="80" height="24" viewBox="0 0 80 24" fill="none" xmlns="http://www.w3.org/2000/svg">
    <g clip-path="url(#clip0_2_14)">
        <path d="M42.1622 6.03012C42.1622 6.89506 41.4374 7.59153 40.5378 7.59153C39.6383 7.59153 38.914 6.89506 38.914 6.03012C38.914 5.16518 39.6136 4.46871 40.5378 4.46871C41.4628 4.49271 42.1622 5.18942 42.1622 6.03012V6.03012ZM35.466 9.17742V9.56189C35.466 9.56189 34.6918 8.60047 33.0427 8.60047C30.3197 8.60047 28.1956 10.5946 28.1956 13.3572C28.1956 16.096 30.2947 18.1139 33.0427 18.1139C34.7168 18.1139 35.466 17.1289 35.466 17.1289V17.5372C35.466 17.7294 35.6163 17.8732 35.816 17.8732H37.8394V8.83999H35.816C35.6163 8.84071 35.466 9.00919 35.466 9.17742V9.17742ZM35.466 14.9668C35.0917 15.4955 34.3419 15.952 33.4426 15.952C31.8437 15.952 30.6192 14.9911 30.6192 13.3572C30.6192 11.7235 31.8437 10.7626 33.4426 10.7626C34.3172 10.7626 35.1166 11.2431 35.466 11.7475V14.9668ZM39.3388 8.84071H41.7371V17.8739H39.3388V8.84071V8.84071ZM75.1669 8.60023C73.5178 8.60023 72.7431 9.56165 72.7431 9.56165V4.49271H70.3447V17.8739H72.3687C72.5686 17.8739 72.7181 17.7057 72.7181 17.5374V17.1292C72.7181 17.1292 73.4928 18.1141 75.1414 18.1141C77.865 18.1141 79.9886 16.0967 79.9886 13.3579C79.9886 10.6191 77.865 8.60023 75.1669 8.60023V8.60023ZM74.767 15.9278C73.8423 15.9278 73.118 15.4718 72.7431 14.9428V11.7235C73.118 11.2431 73.9174 10.7386 74.767 10.7386C76.3659 10.7386 77.5902 11.6995 77.5902 13.3332C77.5902 14.9668 76.3662 15.9278 74.767 15.9278ZM69.0957 12.5167V17.8979H66.6969V12.7807C66.6969 11.2915 66.1972 10.6906 64.8489 10.6906C64.1245 10.6906 63.3748 11.0511 62.8993 11.5798V17.8741H60.5014V8.84095H62.3996C62.5995 8.84095 62.7495 9.00919 62.7495 9.17742V9.56189C63.4491 8.86495 64.3734 8.60047 65.2976 8.60047C66.3472 8.60047 67.2218 8.88919 67.9214 9.46565C68.7705 10.1384 69.0957 11.0031 69.0957 12.5167V12.5167ZM54.6791 8.60023C53.0306 8.60023 52.2558 9.56165 52.2558 9.56165V4.49271H49.8575V17.8739H51.8809C52.0808 17.8739 52.2308 17.7057 52.2308 17.5374V17.1292C52.2308 17.1292 53.0056 18.1141 54.6542 18.1141C57.3777 18.1141 59.5013 16.0967 59.5013 13.3579C59.5263 10.6188 57.4027 8.60023 54.6791 8.60023V8.60023ZM54.2793 15.9278C53.355 15.9278 52.6307 15.4718 52.2558 14.9428V11.7235C52.6307 11.2431 53.4302 10.7386 54.2793 10.7386C55.8787 10.7386 57.1027 11.6995 57.1027 13.3332C57.1027 14.9668 55.8787 15.9278 54.2793 15.9278ZM47.7836 8.60023C48.5079 8.60023 48.8828 8.72071 48.8828 8.72071V10.8586C48.8828 10.8586 46.884 10.2099 45.6351 11.5795V17.8976H43.2362V8.84071H45.2602C45.4601 8.84071 45.6096 9.00894 45.6096 9.17718V9.56165C46.0599 9.05694 47.0343 8.60023 47.7836 8.60023V8.60023ZM22.8742 17.0569C22.7494 16.7687 22.6244 16.4565 22.4996 16.192C22.2994 15.7598 22.0995 15.3511 21.925 14.9668L21.9001 14.9428C20.1759 11.3391 18.3274 7.68777 16.3783 4.08448L16.3034 3.94C16.0984 3.5662 15.8986 3.18978 15.7041 2.81082C15.454 2.37811 15.2044 1.92212 14.8046 1.48941C14.0051 0.528466 12.8557 -0.000244141 11.6317 -0.000244141C10.3823 -0.000244141 9.25808 0.528468 8.43392 1.44117C8.05903 1.8734 7.78397 2.32988 7.53438 2.76259C7.33938 3.1413 7.13961 3.51772 6.9351 3.89176L6.85997 4.03624C4.93609 7.63953 3.06238 11.2911 1.33843 14.8946L1.31323 14.9423C1.13851 15.3273 0.938331 15.7355 0.738406 16.1675C0.613608 16.432 0.488811 16.7202 0.364013 17.0325C0.0390406 17.9212 -0.0610518 18.7621 0.0642449 19.6273C0.339049 21.4292 1.58802 22.9421 3.31222 23.6153C3.96192 23.8798 4.63658 23.9998 5.33594 23.9998C5.53587 23.9998 5.78547 23.9758 5.98564 23.9515C6.81031 23.8555 7.65967 23.5915 8.48434 23.1351C9.50867 22.5823 10.4831 21.7899 11.5823 20.6367C12.6815 21.7899 13.6809 22.5823 14.6803 23.1351C15.5052 23.5915 16.3543 23.8555 17.1787 23.9515C17.3786 23.976 17.6287 23.9998 17.8287 23.9998C18.5283 23.9998 19.2277 23.8798 19.8521 23.6153C21.6013 22.9421 22.8253 21.4052 23.1004 19.6273C23.2988 18.7866 23.199 17.9461 22.8742 17.0569V17.0569ZM11.6065 18.3061C10.2572 16.6725 9.38262 15.1351 9.08311 13.8381C8.95831 13.2854 8.93311 12.8049 9.00824 12.3725C9.0579 11.988 9.20816 11.6515 9.40808 11.3633C9.88281 10.7151 10.6823 10.3064 11.6068 10.3064C12.5315 10.3064 13.3559 10.6908 13.8057 11.3633C14.0056 11.6515 14.1554 11.9882 14.2058 12.3725C14.2804 12.8052 14.2555 13.3094 14.1307 13.8381C13.8299 15.1111 12.9553 16.6487 11.6065 18.3061ZM21.5748 19.4353C21.4001 20.6845 20.5255 21.7659 19.3015 22.2464C18.702 22.4864 18.0521 22.5586 17.4029 22.4864C16.7784 22.4141 16.1534 22.2219 15.5042 21.8619C14.6047 21.3809 13.7054 20.6367 12.6558 19.5313C14.3046 17.5856 15.304 15.8075 15.6789 14.2224C15.8539 13.4774 15.8791 12.8049 15.8037 12.18C15.7041 11.5795 15.479 11.0268 15.1293 10.5464C14.3543 9.46493 13.0549 8.84071 11.6063 8.84071C10.1576 8.84071 8.85823 9.48941 8.08373 10.5464C7.73405 11.0268 7.50891 11.5795 7.40908 12.18C7.30924 12.8049 7.33395 13.5014 7.53387 14.2224C7.90852 15.8075 8.93286 17.6094 10.5567 19.5553C9.53239 20.6605 8.60788 21.4054 7.70834 21.8859C7.05865 22.2464 6.43441 22.4386 5.80993 22.5104C5.13552 22.5826 4.48557 22.4864 3.91101 22.2704C2.68699 21.7899 1.81241 20.7085 1.6377 19.4593C1.56282 18.8588 1.61249 18.2584 1.86258 17.5857C1.93721 17.3452 2.06251 17.1052 2.1873 16.817C2.36227 16.4325 2.5617 16.0238 2.76187 15.6155L2.78708 15.5678C4.51079 11.988 6.35954 8.33647 8.28341 4.78118L8.35829 4.63671C8.55846 4.27672 8.75839 3.89224 8.95807 3.53177C9.158 3.1473 9.38263 2.78682 9.65768 2.47435C10.1823 1.89836 10.8817 1.58565 11.6564 1.58565C12.4312 1.58565 13.1305 1.89836 13.6552 2.47435C13.9303 2.78754 14.1549 3.14802 14.3548 3.53177C14.555 3.89224 14.7549 4.27672 14.9543 4.63671L15.0295 4.78118C16.924 8.35125 18.7482 11.9554 20.5011 15.5918V15.6158C20.7013 16.0007 20.876 16.4327 21.0759 16.8177C21.2007 17.1054 21.3257 17.3454 21.4006 17.5859C21.6 18.2099 21.6749 18.8108 21.5748 19.4353V19.4353Z" fill="#FF5A5F"/>
    </g>
    <defs>
        <clipPath id="clip0_2_14">
            <rect width="80" height="24" fill="white"/>
        </clipPath>
    </defs>
</svg>
